# xmcd
#
# Track frame offsets: 
#        150
#        24517
#        48315
#        61957
#        80002
#        134120
#        164392
#        187405
#        214845
#        232834
#
# Disc length: 3392 seconds
#
# Revision: 0
# Processed by: cddbd v1.5.2PL0 Copyright (c) Steve Scherf et al.
# Submitted via: ExactAudioCopy v0.95b4
#
DISCID=900d3e0a
DTITLE=Various Artist - Sunday Classics
DYEAR=1998
DGENRE=Gospel
TTITLE0=Rough Side of The Mountain - Rev F.C. Barnes and Janice Brown
TTITLE1=I'm Still Holding On - Luther Barnes (f-Debra Barnes)
TTITLE2=Smooth Sailing - Dixie Hummingbirds
TTITLE3=One Day At A Time - Rev Thomas L. Walker and T.L.W. Ensemble
TTITLE4=He;s Preparing Me - Rev Ernest Davis and Wilmington Chester Mass
TTITLE4=Choir
TTITLE5=So Satisfied - Luther Barnes and Red Budd Gospel Choir
TTITLE6=Pouring Water On A Drowing Man - The Five Singing Sons
TTITLE7=The Great Reunion - Sister Pope and The Pearly Gates
TTITLE8=New Life - Olivia Branch Walker
TTITLE9=Try Jesus - Trpy Ramey and The Soul Searchers
EXTD=
EXTT0=
EXTT1=
EXTT2=
EXTT3=
EXTT4=
EXTT5=
EXTT6=
EXTT7=
EXTT8=
EXTT9=
PLAYORDER=
